<?xml version="1.0" encoding="utf-8"?>
<!-- Generator: Adobe Illustrator 19.0.0, SVG Export Plug-In . SVG Version: 6.00 Build 0)  -->
<svg version="1.1" id="Layer_1" xmlns="http://www.w3.org/2000/svg" xmlns:xlink="http://www.w3.org/1999/xlink" x="0px" y="0px"
	 viewBox="0 0 500 500" style="enable-background:new 0 0 500 500;" xml:space="preserve">
<style type="text/css">
	.st0{fill:#DEDEDE;}
	.st1{fill:#FFFFFF;}
</style>
<g>
	<path class="st0" d="M428.4,302.7c-37.7,65.4-92.6,100.7-168.1,106.1c0-12.2-0.1-23.5,0.1-34.8c0-1.5,1.3-3.2,2.5-4.3
		c12.1-11.3,24.3-22.5,37.1-34.4c2.7,14.9-2.4,29.8,4.8,42.9c0.9,0.2,1.8,0.3,2.7,0.5c1.2-3.5,2.9-7,3.5-10.6
		c0.8-4.6,1.4-9.3,1-13.9c-1.9-22.1,5.6-40.9,18.8-58.2c4.1-5.4,6.9-12.1,9-18.6c1.9-6.2-1-11.2-7.1-14.3
		c-15.9-8-31.5-16.5-47.6-24.2c-4.6-2.2-10-2.8-15.2-3.4c-4.9-0.6-10.1-0.9-14.9,0c-21.4,4.1-36.1-7.7-50.2-20.8
		c-7-6.5-8.5-18.6-3.7-27.5c5.1-9.4,13-12.9,23.5-10.6c6.8,1.5,11,4.8,10.4,12.6c-0.4,4.3-0.1,8.8,0.6,13.1c0.5,2.8,2.2,5.4,3.4,8
		c0.8,0,1.6,0,2.4,0c1.2-2.7,2.9-5.3,3.4-8.2c0.8-4.9,1.4-9.9,1.1-14.8c-0.5-8.4,2.1-14,10.7-16.3c9.8-2.7,3.9-11.4,7.1-18.5
		c5.7,0,12.3,0.6,18.8-0.2c3.7-0.5,9.5-2.5,10.3-5.1c1.6-5.4-3.4-6.6-8.2-7.4c-5.7-0.9-7.1-5.2-6.7-10.5c0.6-9-0.3-16-12.6-15.5
		c-3.8,0.1-7.8-6-11.7-9.2c0.5-0.8,0.9-1.7,1.4-2.5c5-1.2,10.4-1.5,14.9-3.7c3.3-1.6,5.4-5.7,8-8.6c-2.9-1.7-5.8-4.8-8.6-4.7
		c-10.6,0.3-18.6-5-25.6-11.6c-2.6-2.4-3.9-7-4.3-10.8c-0.7-6.6-0.2-13.3-0.2-20.8c-51.4,5.6-91.9,28.3-122.9,68.4
		c7.5,1.7,14.6,3.3,23.4,5.3c-3.9,5.5-6.1,9.5-9.1,12.8c-4.7,5-4.9,10.2-2.2,16.1c0.6,1.3,1,2.8,1.8,4c14,20.8,16,44.2,15.7,68.4
		c-0.2,18,1.4,36.1,2.6,54.2c0.4,5.5-0.7,15.7,5.4,16.2c8.7,0.8,5.1-58.9,8.8-88.7c7.9,5.3,12.7,11.1,12.1,20.9
		c-0.4,6.6,0.7,13.4,1.8,20c0.5,3.1-0.3,9.4,4.3,10.2c9.2,1.6,6.1-19.1,8.7-28.9c8.5,6,16.7,11.5,24.5,17.4c6.5,5,13.4,8.2,21.8,7.3
		c7.1-0.8,10.2,2.3,9.9,9.5c-0.3,9-0.7,18.2,0.2,27.1c0.3,3.5,3.8,6.9,6.2,10c3.1,3.9,8.5,7.2,9.1,11.4c0.4,2.6-5.6,7.5-9.7,9.1
		c-5.6,2.3-5.3,6.1-5.4,10.5c-0.5,33.9-0.6,67.7-1.7,101.6c-0.3,9.8-3,19.5-5.3,29.1c-0.6,2.6-3,6.8-6.1,6.8
		c-3.3-0.1-5.7-4.7-6.2-7.4c-2.2-12.9-4-25.9-5-38.9c-0.4-6.1-2.5-8.2-8.3-9.8c-17-4.7-33.7-10.5-52.7-16.5
		c0,13.7,0.7,27.6-0.2,41.4c-1.1,18.3-3.3,36.6-5.2,54.8c-0.2,2.3-0.9,4.7-2,6.7c-1,1.9-1.5,4.6-4.3,4.6c-3.5,0-4.9-2.8-5.4-4.8
		c-2.3-9.9-4.9-19.9-5.6-30c-1.6-23-1.9-46.1-3.1-69.1c-0.4-7.5-1.7-15-3.6-22.3c-0.7-2.8-4.5-4.7-6.9-7.1c-1.7,2.8-4.2,5.4-4.9,8.4
		c-1.9,8.5-2.7,17.3-4.6,25.8c-0.6,2.6-2.5,6.9-5.5,7c-3.3,0.1-6.1-4.5-6.5-7.1c-2.3-15.8-3.5-31.8-5.7-47.6
		c-1.1-8.3-3-16.5-5.5-24.5c-0.7-2.3-4.7-5-7.1-5c-1.7,0-3.9,4.1-5,6.7c-1.6,3.7-2,8-3.7,11.6c-1.1,2.4-2.9,6-5.6,6
		c-3,0-5.3-3.8-6.2-6.4c-2-5.7-3.6-11.8-4-17.8c-3.4-46.9-6.4-93.9,0.7-140.7C73.1,97.4,142.8,29.9,224.2,18.8
		C333.1,4,429.5,73.7,446.9,182.4c4.7,29.7,2.6,60.6,2.6,90.9c0,18-1.6,36.1-3.5,54.1c-0.5,5.1-1.8,14.7-7.3,14.6
		c-5.2,0-5.6-9.1-6.8-14C430,320.3,429.6,312.2,428.4,302.7z M284.8,44.4c0,9.1,0.3,16.7-0.1,24.2c-0.4,7.4,2.3,11.1,10,10.3
		c7.4-0.7,9.4,3.1,9.5,10c0.1,11.3,0.9,22.7,2,34c0.4,4,2.6,7.7,4,11.6c1.2,0,2.4,0,3.6,0c1.5-6.2,3.9-12.3,4.3-18.6
		c0.4-6.1,2.5-9.9,7.4-13.6c10.8-8.1,21.1-16.9,32.1-25.8C335.2,59.9,312,49.2,284.8,44.4z M410.3,143c-0.9-0.1-1.9-0.1-2.8-0.2
		c-3.2,11.7-7.8,23.2-9.2,35.1c-1.4,12.2-0.7,25,1.1,37.2c1.9,12.4,10.4,14.6,20.3,7.1c5.4-4.1,7.2-8.6,6.4-15.7
		C423.9,184.5,420.2,162.9,410.3,143z"/>
	<path class="st0" d="M450.1,371.6c0,6.9-7.5,10.7-11.8,10.2c-4.2-0.4-7.4-6.9-7.2-10.1c0.3-4.4,4.4-8.6,6.8-12.9
		C441.4,362.4,450.1,367.3,450.1,371.6z"/>
	<path class="st1" d="M284.8,44.4c27.2,4.8,50.4,15.5,72.9,32.1c-11,8.9-21.3,17.8-32.1,25.8c-4.9,3.6-7,7.5-7.4,13.6
		c-0.4,6.3-2.8,12.4-4.3,18.6c-1.2,0-2.4,0-3.6,0c-1.4-3.9-3.7-7.6-4-11.6c-1.1-11.3-1.9-22.6-2-34c-0.1-6.9-2.1-10.7-9.5-10
		c-7.8,0.8-10.4-2.9-10-10.3C285.1,61.1,284.8,53.5,284.8,44.4z"/>
	<path class="st1" d="M410.3,143c9.9,20,13.6,41.5,15.9,63.5c0.7,7.1-1.1,11.6-6.4,15.7c-9.9,7.6-18.4,5.3-20.3-7.1
		c-1.9-12.2-2.5-25-1.1-37.2c1.4-11.9,6-23.4,9.2-35.1C408.4,142.8,409.4,142.9,410.3,143z"/>
</g>
</svg>
